<svg width="354" height="354" viewBox="0 0 354 354" fill="none" xmlns="http://www.w3.org/2000/svg">
<circle cx="177" cy="177" r="177" fill="white"/>
<path d="M270 110.333C277.333 110.333 283.333 116.333 283.333 123.667V243.667C283.333 251 277.333 257 270 257H83.3333C76 257 70 251 70 243.667V123.667C70 116.333 76 110.333 83.3333 110.333C83.3333 103 89.3333 97 96.6667 97H150C157.333 97 163.333 103 163.333 110.333H270ZM210 230.333C235.867 230.333 256.667 209.533 256.667 183.667C256.667 157.8 235.867 137 210 137C184.133 137 163.333 157.8 163.333 183.667C163.333 209.533 184.133 230.333 210 230.333ZM243.333 183.667C243.333 202.067 228.267 217 210 217C191.733 217 176.667 201.933 176.667 183.667C176.667 165.4 191.733 150.333 210 150.333C228.267 150.333 243.333 165.4 243.333 183.667ZM150 137V123.667H96.6667V137H150Z" fill="black"/>
</svg>
