<svg viewBox="0 0 354 354" fill="none" xmlns="http://www.w3.org/2000/svg">
    <circle cx="177" cy="177" r="177" fill="white"/>
    <path fill-rule="evenodd" clip-rule="evenodd" d="M95.4375 140.429C75.7538 140.429 59.1875 157.142 59.1875 177C59.1875 196.858 75.7538 213.571 95.4375 213.571C104.953 213.571 115.774 209.11 128.516 200.278C137.759 193.878 147.094 185.832 156.809 177C147.094 168.168 137.741 160.141 128.534 153.722C115.756 144.89 104.953 140.429 95.4375 140.429ZM177 158.422C166.306 148.675 155.178 138.929 143.922 131.121C129.476 121.101 113.109 113 95.4375 113C60.7462 113 32 142.001 32 177C32 211.999 60.7462 241 95.4375 241C113.109 241 129.476 232.881 143.922 222.879C155.178 215.071 166.306 205.325 177 195.578C187.694 205.325 198.822 215.071 210.078 222.879C224.524 232.881 240.891 241 258.562 241C293.254 241 322 211.999 322 177C322 142.001 293.254 113 258.562 113C240.891 113 224.524 121.101 210.078 131.121C198.822 138.929 187.694 148.675 177 158.422V158.422ZM197.191 177C206.906 185.832 216.259 193.859 225.466 200.278C238.226 209.11 249.029 213.571 258.562 213.571C278.246 213.571 294.812 196.858 294.812 177C294.812 157.142 278.246 140.429 258.562 140.429C249.047 140.429 238.226 144.89 225.484 153.722C216.241 160.122 206.906 168.168 197.191 177V177Z" fill="black"/>
</svg>
