<?xml version="1.0" standalone="no"?>
<!DOCTYPE svg PUBLIC "-//W3C//DTD SVG 20010904//EN"
 "http://www.w3.org/TR/2001/REC-SVG-20010904/DTD/svg10.dtd">
<svg version="1.0" xmlns="http://www.w3.org/2000/svg"
 width="700.000000pt" height="700.000000pt" viewBox="0 0 700.000000 700.000000"
 preserveAspectRatio="xMidYMid meet">
<metadata>
Created by potrace 1.14, written by Peter Selinger 2001-2017
</metadata>
<g transform="translate(0.000000,700.000000) scale(0.100000,-0.100000)"
fill="#000000" stroke="none">
<path d="M1239 6119 c-139 -20 -288 -150 -342 -297 -20 -57 -21 -58 -22 -2292
0 -1229 3 -2259 8 -2289 23 -155 178 -321 333 -357 43 -10 4491 -11 4548 -1
146 26 284 146 339 295 21 57 21 58 22 2282 2 2405 4 2334 -51 2427 -58 100
-151 179 -252 216 -57 20 -58 20 -2298 21 -1232 1 -2261 -2 -2285 -5z m4449
-2620 l-1 -2188 -2187 1 -2187 1 0 2187 -1 2187 2188 0 2188 0 0 -2188z"/>
<path d="M2024 4961 c-2 -2 -4 -100 -4 -218 l0 -213 43 0 c37 -1 2321 -1 2755
0 l162 0 0 218 0 218 -1476 0 c-811 0 -1477 -2 -1480 -5z"/>
<path d="M2020 3500 l0 -219 1480 0 1480 0 0 218 0 219 -1480 0 -1480 1 0
-219z"/>
<path d="M2317 2472 l-297 -2 2 -218 3 -217 1000 0 1000 0 0 218 0 217 -100 0
c-55 0 -372 1 -705 3 -333 1 -739 1 -903 -1z"/>
</g>
</svg>
